<svg width="568" height="140" viewBox="0 0 568 140" fill="none" xmlns="http://www.w3.org/2000/svg">
<rect width="568" height="140" fill="white"/>
<path d="M0 0H100V140H0V0Z" fill="white"/>
<line x1="5" y1="19.625" x2="95" y2="19.625" stroke="#999999" stroke-width="0.75"/>
<line x1="5" y1="39.625" x2="95" y2="39.625" stroke="#999999" stroke-width="0.75"/>
<line x1="5" y1="129.625" x2="95" y2="129.625" stroke="#999999" stroke-width="0.75"/>
<line x1="5" y1="119.625" x2="95" y2="119.625" stroke="#999999" stroke-width="0.75"/>
<line x1="5" y1="109.625" x2="95" y2="109.625" stroke="#999999" stroke-width="0.75"/>
<line x1="5" y1="99.625" x2="95" y2="99.625" stroke="#999999" stroke-width="0.75"/>
<line x1="5" y1="89.625" x2="95" y2="89.625" stroke="#999999" stroke-width="0.75"/>
<line x1="5" y1="79.625" x2="95" y2="79.625" stroke="#999999" stroke-width="0.75"/>
<line x1="5" y1="69.625" x2="95" y2="69.625" stroke="#999999" stroke-width="0.75"/>
<line x1="5" y1="59.625" x2="95" y2="59.625" stroke="#999999" stroke-width="0.75"/>
<line x1="5" y1="49.625" x2="95" y2="49.625" stroke="#999999" stroke-width="0.75"/>
<line x1="5" y1="29.625" x2="95" y2="29.625" stroke="#999999" stroke-width="0.75"/>
<path d="M17.4545 33.0909V68H13.2273V33.0909H17.4545Z" fill="black"/>
<path d="M30.2273 88V53.0909H34.4545V84.25H50.6818V88H30.2273Z" fill="#A37F3B"/>
<path d="M65.2273 108V73.0909H69.4545V104.25H85.6818V108H65.2273Z" fill="#637A39"/>
<path d="M119.455 51.0909V86H115.227V51.0909H119.455ZM148.794 59.8182L139.112 86H135.021L125.339 59.8182H129.703L136.93 80.6818H137.203L144.43 59.8182H148.794ZM156.695 95.8182C156.013 95.8182 155.405 95.7614 154.871 95.6477C154.337 95.5455 153.967 95.4432 153.763 95.3409L154.786 91.7955C155.763 92.0455 156.626 92.1364 157.376 92.0682C158.126 92 158.791 91.6648 159.371 91.0625C159.962 90.4716 160.501 89.5114 160.99 88.1818L161.74 86.1364L152.058 59.8182H156.422L163.649 80.6818H163.922L171.149 59.8182H175.513L164.399 89.8182C163.899 91.1705 163.28 92.2898 162.541 93.1761C161.803 94.0739 160.945 94.7386 159.967 95.1705C159.001 95.6023 157.911 95.8182 156.695 95.8182ZM194.868 86V51.0909H199.095V82.25H215.322V86H194.868ZM232.3 86.5455C229.777 86.5455 227.601 85.9886 225.771 84.875C223.953 83.75 222.55 82.1818 221.561 80.1705C220.584 78.1477 220.095 75.7955 220.095 73.1136C220.095 70.4318 220.584 68.0682 221.561 66.0227C222.55 63.9659 223.925 62.3636 225.686 61.2159C227.459 60.0568 229.527 59.4773 231.891 59.4773C233.254 59.4773 234.601 59.7045 235.93 60.1591C237.26 60.6136 238.47 61.3523 239.561 62.375C240.652 63.3864 241.521 64.7273 242.169 66.3977C242.817 68.0682 243.141 70.125 243.141 72.5682V74.2727H222.959V70.7955H239.05C239.05 69.3182 238.754 68 238.163 66.8409C237.584 65.6818 236.754 64.767 235.675 64.0966C234.607 63.4261 233.345 63.0909 231.891 63.0909C230.288 63.0909 228.902 63.4886 227.732 64.2841C226.572 65.0682 225.68 66.0909 225.055 67.3523C224.43 68.6136 224.118 69.9659 224.118 71.4091V73.7273C224.118 75.7045 224.459 77.3807 225.141 78.7557C225.834 80.1193 226.794 81.1591 228.021 81.875C229.249 82.5795 230.675 82.9318 232.3 82.9318C233.357 82.9318 234.311 82.7841 235.163 82.4886C236.027 82.1818 236.771 81.7273 237.396 81.125C238.021 80.5114 238.504 79.75 238.845 78.8409L242.732 79.9318C242.322 81.25 241.635 82.4091 240.669 83.4091C239.703 84.3977 238.51 85.1705 237.089 85.7273C235.669 86.2727 234.072 86.5455 232.3 86.5455ZM256.964 86.6136C255.305 86.6136 253.8 86.3011 252.447 85.6761C251.095 85.0398 250.021 84.125 249.226 82.9318C248.43 81.7273 248.033 80.2727 248.033 78.5682C248.033 77.0682 248.328 75.8523 248.919 74.9205C249.51 73.9773 250.3 73.2386 251.288 72.7045C252.277 72.1705 253.368 71.7727 254.561 71.5114C255.766 71.2386 256.976 71.0227 258.192 70.8636C259.783 70.6591 261.072 70.5057 262.061 70.4034C263.061 70.2898 263.788 70.1023 264.243 69.8409C264.709 69.5795 264.942 69.125 264.942 68.4773V68.3409C264.942 66.6591 264.482 65.3523 263.561 64.4205C262.652 63.4886 261.271 63.0227 259.419 63.0227C257.499 63.0227 255.993 63.4432 254.902 64.2841C253.811 65.125 253.044 66.0227 252.601 66.9773L248.783 65.6136C249.464 64.0227 250.374 62.7841 251.51 61.8977C252.658 61 253.908 60.375 255.26 60.0227C256.624 59.6591 257.964 59.4773 259.283 59.4773C260.124 59.4773 261.089 59.5795 262.18 59.7841C263.283 59.9773 264.345 60.3807 265.368 60.9943C266.402 61.608 267.26 62.5341 267.942 63.7727C268.624 65.0114 268.964 66.6705 268.964 68.75V86H264.942V82.4545H264.737C264.464 83.0227 264.01 83.6307 263.374 84.2784C262.737 84.9261 261.891 85.4773 260.834 85.9318C259.777 86.3864 258.487 86.6136 256.964 86.6136ZM257.578 83C259.169 83 260.51 82.6875 261.601 82.0625C262.703 81.4375 263.533 80.6307 264.089 79.642C264.658 78.6534 264.942 77.6136 264.942 76.5227V72.8409C264.771 73.0455 264.396 73.233 263.817 73.4034C263.249 73.5625 262.589 73.7045 261.839 73.8295C261.101 73.9432 260.379 74.0455 259.675 74.1364C258.982 74.2159 258.419 74.2841 257.987 74.3409C256.942 74.4773 255.964 74.6989 255.055 75.0057C254.158 75.3011 253.43 75.75 252.874 76.3523C252.328 76.9432 252.055 77.75 252.055 78.7727C252.055 80.1705 252.572 81.2273 253.607 81.9432C254.652 82.6477 255.976 83 257.578 83ZM286.875 96.3636C284.932 96.3636 283.261 96.1136 281.864 95.6136C280.466 95.125 279.301 94.4773 278.369 93.6705C277.449 92.875 276.716 92.0227 276.17 91.1136L279.375 88.8636C279.739 89.3409 280.199 89.8864 280.756 90.5C281.313 91.125 282.074 91.6648 283.04 92.1193C284.017 92.5852 285.295 92.8182 286.875 92.8182C288.989 92.8182 290.733 92.3068 292.108 91.2841C293.483 90.2614 294.17 88.6591 294.17 86.4773V81.1591H293.83C293.534 81.6364 293.114 82.2273 292.568 82.9318C292.034 83.625 291.261 84.2443 290.25 84.7898C289.25 85.3239 287.898 85.5909 286.193 85.5909C284.08 85.5909 282.182 85.0909 280.5 84.0909C278.83 83.0909 277.506 81.6364 276.528 79.7273C275.563 77.8182 275.08 75.5 275.08 72.7727C275.08 70.0909 275.551 67.7557 276.494 65.767C277.438 63.767 278.75 62.2216 280.432 61.1307C282.114 60.0284 284.057 59.4773 286.261 59.4773C287.966 59.4773 289.318 59.7614 290.318 60.3295C291.33 60.8864 292.102 61.5227 292.636 62.2386C293.182 62.9432 293.602 63.5227 293.898 63.9773H294.307V59.8182H298.193V86.75C298.193 89 297.682 90.8295 296.659 92.2386C295.648 93.6591 294.284 94.6989 292.568 95.358C290.864 96.0284 288.966 96.3636 286.875 96.3636ZM286.739 81.9773C288.352 81.9773 289.716 81.608 290.83 80.8693C291.943 80.1307 292.79 79.0682 293.369 77.6818C293.949 76.2955 294.239 74.6364 294.239 72.7045C294.239 70.8182 293.955 69.1534 293.386 67.7102C292.818 66.267 291.977 65.1364 290.864 64.3182C289.75 63.5 288.375 63.0909 286.739 63.0909C285.034 63.0909 283.614 63.5227 282.477 64.3864C281.352 65.25 280.506 66.4091 279.938 67.8636C279.381 69.3182 279.102 70.9318 279.102 72.7045C279.102 74.5227 279.386 76.1307 279.955 77.5284C280.534 78.9148 281.386 80.0057 282.511 80.8011C283.648 81.5852 285.057 81.9773 286.739 81.9773ZM322.057 75.2955V59.8182H326.08V86H322.057V81.5682H321.784C321.17 82.8977 320.216 84.0284 318.92 84.9602C317.625 85.8807 315.989 86.3409 314.011 86.3409C312.375 86.3409 310.92 85.983 309.648 85.267C308.375 84.5398 307.375 83.4489 306.648 81.9943C305.92 80.5284 305.557 78.6818 305.557 76.4545V59.8182H309.58V76.1818C309.58 78.0909 310.114 79.6136 311.182 80.75C312.261 81.8864 313.636 82.4545 315.307 82.4545C316.307 82.4545 317.324 82.1989 318.358 81.6875C319.403 81.1761 320.278 80.392 320.983 79.3352C321.699 78.2784 322.057 76.9318 322.057 75.2955ZM344.425 86.5455C341.902 86.5455 339.726 85.9886 337.896 84.875C336.078 83.75 334.675 82.1818 333.686 80.1705C332.709 78.1477 332.22 75.7955 332.22 73.1136C332.22 70.4318 332.709 68.0682 333.686 66.0227C334.675 63.9659 336.05 62.3636 337.811 61.2159C339.584 60.0568 341.652 59.4773 344.016 59.4773C345.379 59.4773 346.726 59.7045 348.055 60.1591C349.385 60.6136 350.595 61.3523 351.686 62.375C352.777 63.3864 353.646 64.7273 354.294 66.3977C354.942 68.0682 355.266 70.125 355.266 72.5682V74.2727H335.084V70.7955H351.175C351.175 69.3182 350.879 68 350.288 66.8409C349.709 65.6818 348.879 64.767 347.8 64.0966C346.732 63.4261 345.47 63.0909 344.016 63.0909C342.413 63.0909 341.027 63.4886 339.857 64.2841C338.697 65.0682 337.805 66.0909 337.18 67.3523C336.555 68.6136 336.243 69.9659 336.243 71.4091V73.7273C336.243 75.7045 336.584 77.3807 337.266 78.7557C337.959 80.1193 338.919 81.1591 340.146 81.875C341.374 82.5795 342.8 82.9318 344.425 82.9318C345.482 82.9318 346.436 82.7841 347.288 82.4886C348.152 82.1818 348.896 81.7273 349.521 81.125C350.146 80.5114 350.629 79.75 350.97 78.8409L354.857 79.9318C354.447 81.25 353.76 82.4091 352.794 83.4091C351.828 84.3977 350.635 85.1705 349.214 85.7273C347.794 86.2727 346.197 86.5455 344.425 86.5455ZM375.43 86V51.0909H379.658V82.25H395.885V86H375.43ZM412.862 86.5455C410.339 86.5455 408.163 85.9886 406.334 84.875C404.516 83.75 403.112 82.1818 402.124 80.1705C401.146 78.1477 400.658 75.7955 400.658 73.1136C400.658 70.4318 401.146 68.0682 402.124 66.0227C403.112 63.9659 404.487 62.3636 406.249 61.2159C408.021 60.0568 410.089 59.4773 412.453 59.4773C413.817 59.4773 415.163 59.7045 416.493 60.1591C417.822 60.6136 419.033 61.3523 420.124 62.375C421.214 63.3864 422.084 64.7273 422.732 66.3977C423.379 68.0682 423.703 70.125 423.703 72.5682V74.2727H403.521V70.7955H419.612C419.612 69.3182 419.317 68 418.726 66.8409C418.146 65.6818 417.317 64.767 416.237 64.0966C415.169 63.4261 413.908 63.0909 412.453 63.0909C410.851 63.0909 409.464 63.4886 408.294 64.2841C407.135 65.0682 406.243 66.0909 405.618 67.3523C404.993 68.6136 404.68 69.9659 404.68 71.4091V73.7273C404.68 75.7045 405.021 77.3807 405.703 78.7557C406.396 80.1193 407.357 81.1591 408.584 81.875C409.811 82.5795 411.237 82.9318 412.862 82.9318C413.919 82.9318 414.874 82.7841 415.726 82.4886C416.589 82.1818 417.334 81.7273 417.959 81.125C418.584 80.5114 419.067 79.75 419.408 78.8409L423.294 79.9318C422.885 81.25 422.197 82.4091 421.232 83.4091C420.266 84.3977 419.072 85.1705 417.652 85.7273C416.232 86.2727 414.635 86.5455 412.862 86.5455ZM437.527 86.6136C435.868 86.6136 434.362 86.3011 433.01 85.6761C431.658 85.0398 430.584 84.125 429.788 82.9318C428.993 81.7273 428.595 80.2727 428.595 78.5682C428.595 77.0682 428.891 75.8523 429.482 74.9205C430.072 73.9773 430.862 73.2386 431.851 72.7045C432.839 72.1705 433.93 71.7727 435.124 71.5114C436.328 71.2386 437.538 71.0227 438.754 70.8636C440.345 70.6591 441.635 70.5057 442.624 70.4034C443.624 70.2898 444.351 70.1023 444.805 69.8409C445.271 69.5795 445.504 69.125 445.504 68.4773V68.3409C445.504 66.6591 445.044 65.3523 444.124 64.4205C443.214 63.4886 441.834 63.0227 439.982 63.0227C438.061 63.0227 436.555 63.4432 435.464 64.2841C434.374 65.125 433.607 66.0227 433.163 66.9773L429.345 65.6136C430.027 64.0227 430.936 62.7841 432.072 61.8977C433.22 61 434.47 60.375 435.822 60.0227C437.186 59.6591 438.527 59.4773 439.845 59.4773C440.686 59.4773 441.652 59.5795 442.743 59.7841C443.845 59.9773 444.908 60.3807 445.93 60.9943C446.964 61.608 447.822 62.5341 448.504 63.7727C449.186 65.0114 449.527 66.6705 449.527 68.75V86H445.504V82.4545H445.3C445.027 83.0227 444.572 83.6307 443.936 84.2784C443.3 84.9261 442.453 85.4773 441.396 85.9318C440.339 86.3864 439.05 86.6136 437.527 86.6136ZM438.141 83C439.732 83 441.072 82.6875 442.163 82.0625C443.266 81.4375 444.095 80.6307 444.652 79.642C445.22 78.6534 445.504 77.6136 445.504 76.5227V72.8409C445.334 73.0455 444.959 73.233 444.379 73.4034C443.811 73.5625 443.152 73.7045 442.402 73.8295C441.663 73.9432 440.942 74.0455 440.237 74.1364C439.544 74.2159 438.982 74.2841 438.55 74.3409C437.504 74.4773 436.527 74.6989 435.618 75.0057C434.72 75.3011 433.993 75.75 433.436 76.3523C432.891 76.9432 432.618 77.75 432.618 78.7727C432.618 80.1705 433.135 81.2273 434.169 81.9432C435.214 82.6477 436.538 83 438.141 83ZM456.869 86V59.8182H460.756V63.7727H461.028C461.506 62.4773 462.369 61.4261 463.619 60.6193C464.869 59.8125 466.278 59.4091 467.847 59.4091C468.142 59.4091 468.511 59.4148 468.955 59.4261C469.398 59.4375 469.733 59.4545 469.96 59.4773V63.5682C469.824 63.5341 469.511 63.483 469.023 63.4148C468.545 63.3352 468.04 63.2955 467.506 63.2955C466.233 63.2955 465.097 63.5625 464.097 64.0966C463.108 64.6193 462.324 65.3466 461.744 66.2784C461.176 67.1989 460.892 68.25 460.892 69.4318V86H456.869ZM478.751 70.25V86H474.729V59.8182H478.615V63.9091H478.956C479.57 62.5795 480.501 61.5114 481.751 60.7045C483.001 59.8864 484.615 59.4773 486.592 59.4773C488.365 59.4773 489.916 59.8409 491.246 60.5682C492.575 61.2841 493.609 62.375 494.348 63.8409C495.087 65.2955 495.456 67.1364 495.456 69.3636V86H491.433V69.6364C491.433 67.5795 490.899 65.9773 489.831 64.8295C488.763 63.6705 487.297 63.0909 485.433 63.0909C484.149 63.0909 483.001 63.3693 481.99 63.9261C480.99 64.483 480.2 65.2955 479.621 66.3636C479.041 67.4318 478.751 68.7273 478.751 70.25ZM513.784 86.5455C511.261 86.5455 509.085 85.9886 507.256 84.875C505.438 83.75 504.034 82.1818 503.045 80.1705C502.068 78.1477 501.58 75.7955 501.58 73.1136C501.58 70.4318 502.068 68.0682 503.045 66.0227C504.034 63.9659 505.409 62.3636 507.17 61.2159C508.943 60.0568 511.011 59.4773 513.375 59.4773C514.739 59.4773 516.085 59.7045 517.415 60.1591C518.744 60.6136 519.955 61.3523 521.045 62.375C522.136 63.3864 523.006 64.7273 523.653 66.3977C524.301 68.0682 524.625 70.125 524.625 72.5682V74.2727H504.443V70.7955H520.534C520.534 69.3182 520.239 68 519.648 66.8409C519.068 65.6818 518.239 64.767 517.159 64.0966C516.091 63.4261 514.83 63.0909 513.375 63.0909C511.773 63.0909 510.386 63.4886 509.216 64.2841C508.057 65.0682 507.165 66.0909 506.54 67.3523C505.915 68.6136 505.602 69.9659 505.602 71.4091V73.7273C505.602 75.7045 505.943 77.3807 506.625 78.7557C507.318 80.1193 508.278 81.1591 509.506 81.875C510.733 82.5795 512.159 82.9318 513.784 82.9318C514.841 82.9318 515.795 82.7841 516.648 82.4886C517.511 82.1818 518.256 81.7273 518.881 81.125C519.506 80.5114 519.989 79.75 520.33 78.8409L524.216 79.9318C523.807 81.25 523.119 82.4091 522.153 83.4091C521.188 84.3977 519.994 85.1705 518.574 85.7273C517.153 86.2727 515.557 86.5455 513.784 86.5455ZM530.744 86V59.8182H534.631V63.7727H534.903C535.381 62.4773 536.244 61.4261 537.494 60.6193C538.744 59.8125 540.153 59.4091 541.722 59.4091C542.017 59.4091 542.386 59.4148 542.83 59.4261C543.273 59.4375 543.608 59.4545 543.835 59.4773V63.5682C543.699 63.5341 543.386 63.483 542.898 63.4148C542.42 63.3352 541.915 63.2955 541.381 63.2955C540.108 63.2955 538.972 63.5625 537.972 64.0966C536.983 64.6193 536.199 65.3466 535.619 66.2784C535.051 67.1989 534.767 68.25 534.767 69.4318V86H530.744ZM567.149 65.6818L563.536 66.7045C563.308 66.1023 562.973 65.517 562.53 64.9489C562.098 64.3693 561.507 63.892 560.757 63.517C560.007 63.142 559.047 62.9545 557.876 62.9545C556.274 62.9545 554.939 63.3239 553.871 64.0625C552.814 64.7898 552.286 65.7159 552.286 66.8409C552.286 67.8409 552.649 68.6307 553.376 69.2102C554.104 69.7898 555.24 70.2727 556.786 70.6591L560.672 71.6136C563.013 72.1818 564.757 73.0511 565.905 74.2216C567.053 75.3807 567.626 76.875 567.626 78.7045C567.626 80.2045 567.195 81.5455 566.331 82.7273C565.479 83.9091 564.286 84.8409 562.751 85.5227C561.217 86.2045 559.433 86.5455 557.399 86.5455C554.729 86.5455 552.518 85.9659 550.768 84.8068C549.018 83.6477 547.911 81.9545 547.445 79.7273L551.263 78.7727C551.626 80.1818 552.314 81.2386 553.325 81.9432C554.348 82.6477 555.683 83 557.331 83C559.206 83 560.695 82.6023 561.797 81.8068C562.911 81 563.467 80.0341 563.467 78.9091C563.467 78 563.149 77.2386 562.513 76.625C561.876 76 560.899 75.5341 559.581 75.2273L555.217 74.2045C552.82 73.6364 551.058 72.7557 549.933 71.5625C548.82 70.358 548.263 68.8523 548.263 67.0455C548.263 65.5682 548.678 64.2614 549.507 63.125C550.348 61.9886 551.49 61.0966 552.933 60.4489C554.388 59.8011 556.036 59.4773 557.876 59.4773C560.467 59.4773 562.501 60.0455 563.979 61.1818C565.467 62.3182 566.524 63.8182 567.149 65.6818Z" fill="black"/>
</svg>
